<?xml version="1.0" encoding="UTF-8" standalone="no"?>
<svg
   xmlns:dc="http://purl.org/dc/elements/1.1/"
   xmlns:cc="http://creativecommons.org/ns#"
   xmlns:rdf="http://www.w3.org/1999/02/22-rdf-syntax-ns#"
   xmlns:svg="http://www.w3.org/2000/svg"
   xmlns="http://www.w3.org/2000/svg"
   width="13.763412mm"
   height="14.603307mm"
   viewBox="0 0 13.763413 14.603307"
   version="1.1"
   id="svg8">
  <defs
     id="defs2">
    <clipPath
       clipPathUnits="userSpaceOnUse"
       id="clipPath890">
      <ellipse
         ry="5.9091215"
         rx="5.5673323"
         cy="43.649025"
         cx="139.07217"
         id="ellipse892"
         style="fill:#ffca66;fill-opacity:1;stroke:#000000;stroke-width:0.29875848;stroke-opacity:0.5098038" />
    </clipPath>
    <filter
       style="color-interpolation-filters:sRGB"
       id="filter847">
      <feFlood
         flood-opacity="0.498039"
         flood-color="rgb(0,0,0)"
         result="flood"
         id="feFlood837" />
      <feComposite
         in="flood"
         in2="SourceGraphic"
         operator="in"
         result="composite1"
         id="feComposite839" />
      <feGaussianBlur
         in="composite1"
         stdDeviation="0.5"
         result="blur"
         id="feGaussianBlur841" />
      <feOffset
         dx="0"
         dy="0"
         result="offset"
         id="feOffset843" />
      <feComposite
         in="SourceGraphic"
         in2="offset"
         operator="over"
         result="composite2"
         id="feComposite845" />
    </filter>
    <filter
       style="color-interpolation-filters:sRGB"
       id="filter859">
      <feFlood
         flood-opacity="0.498039"
         flood-color="rgb(0,0,0)"
         result="flood"
         id="feFlood849" />
      <feComposite
         in="flood"
         in2="SourceGraphic"
         operator="in"
         result="composite1"
         id="feComposite851" />
      <feGaussianBlur
         in="composite1"
         stdDeviation="0.5"
         result="blur"
         id="feGaussianBlur853" />
      <feOffset
         dx="0"
         dy="0"
         result="offset"
         id="feOffset855" />
      <feComposite
         in="SourceGraphic"
         in2="offset"
         operator="over"
         result="composite2"
         id="feComposite857" />
    </filter>
  </defs>
  <metadata
     id="metadata5">
    <rdf:RDF>
      <cc:Work
         rdf:about="">
        <dc:format>image/svg+xml</dc:format>
        <dc:type
           rdf:resource="http://purl.org/dc/dcmitype/StillImage" />
        <dc:title></dc:title>
      </cc:Work>
    </rdf:RDF>
  </metadata>
  <g
     id="g853">
    <ellipse
       style="fill:#ffca66;fill-opacity:1;stroke:#000000;stroke-width:0.298758;stroke-opacity:0.509804"
       id="path844"
       cx="6.9248123"
       cy="7.3011923"
       rx="5.5673323"
       ry="5.9091215" />
    <path
       id="path833"
       style="font-style:normal;font-variant:normal;font-weight:300;font-stretch:normal;font-size:22.5778px;line-height:1.25;font-family:Raleway;-inkscape-font-specification:'Raleway Light';letter-spacing:0px;word-spacing:0px;fill:#888888;fill-opacity:1;stroke:none;stroke-width:0.264583;filter:url(#filter859)"
       d="m 6.881711,13.386364 q -1.24178,0 -2.30293,-0.474134 -1.03858,-0.496711 -1.80623,-1.332088 -0.76764,-0.835378 -1.19662,-1.9416888 -0.42898,-1.106311 -0.42898,-2.325511 0,-1.241778 0.42898,-2.348089 0.45156,-1.106311 1.2192,-1.941689 0.76765,-0.835378 1.80622,-1.309511 1.06116,-0.496711 2.28036,-0.496711 1.2192,0 2.25778,0.496711 1.03857,0.474133 1.80622,1.309511 0.79022,0.835378 1.2192,1.941689 0.45155,1.106311 0.45155,2.348089 0,1.2192 -0.45155,2.325511 -0.42898,1.1063108 -1.19662,1.9416888 -0.76765,0.835377 -1.8288,1.332088 -1.03858,0.474134 -2.25778,0.474134 z M 2.275841,7.3580972 q 0,1.038578 0.36125,1.964267 0.36124,0.9031108 0.97084,1.5804438 0.63218,0.677334 1.46756,1.083734 0.83537,0.383822 1.78364,0.383822 0.94827,0 1.78365,-0.383822 0.83537,-0.4064 1.46755,-1.106312 0.63218,-0.699911 0.99342,-1.6030218 0.36125,-0.925689 0.36125,-1.986844 0,-1.038578 -0.36125,-1.941689 -0.36124,-0.925689 -0.99342,-1.603022 -0.63218,-0.699911 -1.46755,-1.106311 -0.8128,-0.4064 -1.76107,-0.4064 -0.94827,0 -1.78365,0.4064 -0.83537,0.4064 -1.46755,1.106311 -0.6096,0.699911 -0.99342,1.648177 -0.36125,0.925689 -0.36125,1.964267 z" />
    <circle
       style="fill:#888888;fill-opacity:1;stroke:none;stroke-width:0.286482;stroke-opacity:0.509804;filter:url(#filter847)"
       id="path844-3"
       cx="142.83353"
       cy="44.171246"
       r="5.5"
       clip-path="url(#clipPath890)"
       transform="translate(-132.14736,-36.347833)" />
  </g>
</svg>
