<?xml version="1.0" encoding="UTF-8" standalone="no"?>
<svg
   id="svg8"
   version="1.1"
   viewBox="0 0 166.03238 21.527228"
   height="21.527227mm"
   width="166.03238mm"
   xmlns="http://www.w3.org/2000/svg"
   xmlns:svg="http://www.w3.org/2000/svg"
   xmlns:rdf="http://www.w3.org/1999/02/22-rdf-syntax-ns#"
   xmlns:cc="http://creativecommons.org/ns#"
   xmlns:dc="http://purl.org/dc/elements/1.1/">
  <defs
     id="defs2">
    <clipPath
       id="clipPath890"
       clipPathUnits="userSpaceOnUse">
      <ellipse
         style="fill:#ffca66;fill-opacity:1;stroke:#000000;stroke-width:0.298758;stroke-opacity:0.509804"
         id="ellipse892"
         cx="139.07217"
         cy="43.649025"
         rx="5.5673323"
         ry="5.9091215" />
    </clipPath>
    <filter
       style="color-interpolation-filters:sRGB"
       id="filter836"
       x="-0.21605544"
       y="-0.11417765"
       width="1.4321109"
       height="1.2283553">
      <feFlood
         flood-opacity="0.498039"
         flood-color="rgb(0,0,0)"
         result="flood"
         id="feFlood826" />
      <feComposite
         in="flood"
         in2="SourceGraphic"
         operator="in"
         result="composite1"
         id="feComposite828" />
      <feGaussianBlur
         in="composite1"
         stdDeviation="0.5"
         result="blur"
         id="feGaussianBlur830" />
      <feOffset
         dx="0"
         dy="0"
         result="offset"
         id="feOffset832" />
      <feComposite
         in="SourceGraphic"
         in2="offset"
         operator="over"
         result="composite2"
         id="feComposite834" />
    </filter>
  </defs>
  <metadata
     id="metadata5">
    <rdf:RDF>
      <cc:Work
         rdf:about="">
        <dc:format>image/svg+xml</dc:format>
        <dc:type
           rdf:resource="http://purl.org/dc/dcmitype/StillImage" />
      </cc:Work>
    </rdf:RDF>
  </metadata>
  <g
     aria-label=".space"
     id="text341"
     style="font-size:19.7556px;line-height:1.25;font-family:'Iosevka Term';-inkscape-font-specification:'Iosevka Term';fill:#222222;stroke-width:0.264583;stroke-opacity:0.0509804">
    <g
       id="g21286">
      <g
         id="g886"
         transform="translate(-10.973102,-11.648178)">
        <ellipse
           ry="5.9091215"
           rx="5.5673323"
           cy="22.270561"
           cx="100.1757"
           id="path844"
           style="fill:#ffca66;fill-opacity:1;stroke:#000000;stroke-width:0.298758;stroke-opacity:0.509804" />
        <g
           id="g873">
          <path
             id="path819"
             style="font-style:normal;font-variant:normal;font-weight:300;font-stretch:normal;font-size:22.5778px;line-height:1.25;font-family:Raleway;-inkscape-font-specification:'Raleway Light';letter-spacing:0px;word-spacing:0px;fill:#222222;fill-opacity:1;stroke:none;stroke-width:0.264583"
             d="m 19.462346,28.129956 -4.583289,-6.276622 -2.777067,2.551289 v 3.725333 H 10.973102 V 11.648178 h 1.128888 v 11.514667 l 7.134578,-6.750756 h 1.309511 l -4.899377,4.763911 5.057422,6.953956 z" />
          <path
             id="path821"
             style="font-style:normal;font-variant:normal;font-weight:300;font-stretch:normal;font-size:22.5778px;line-height:1.25;font-family:Raleway;-inkscape-font-specification:'Raleway Light';letter-spacing:0px;word-spacing:0px;fill:#222222;fill-opacity:1;stroke:none;stroke-width:0.264583"
             d="m 27.071033,28.355734 q -1.241778,0 -2.302933,-0.474134 -1.038578,-0.496711 -1.806223,-1.332088 -0.767644,-0.835378 -1.196622,-1.941689 -0.428978,-1.106311 -0.428978,-2.325511 0,-1.241778 0.428978,-2.348089 0.451556,-1.106311 1.2192,-1.941689 0.767645,-0.835378 1.806222,-1.309511 1.061156,-0.496711 2.280356,-0.496711 1.2192,0 2.257778,0.496711 1.038577,0.474133 1.806222,1.309511 0.790222,0.835378 1.2192,1.941689 0.451556,1.106311 0.451556,2.348089 0,1.2192 -0.451556,2.325511 -0.428978,1.106311 -1.196622,1.941689 -0.767645,0.835377 -1.8288,1.332088 -1.038578,0.474134 -2.257778,0.474134 z m -4.605867,-6.028267 q 0,1.038578 0.361245,1.964267 0.361244,0.903111 0.970844,1.580444 0.632178,0.677334 1.467556,1.083734 0.835377,0.383822 1.783644,0.383822 0.948267,0 1.783645,-0.383822 0.835377,-0.4064 1.467555,-1.106312 0.632178,-0.699911 0.993422,-1.603022 0.361245,-0.925689 0.361245,-1.986844 0,-1.038578 -0.361245,-1.941689 -0.361244,-0.925689 -0.993422,-1.603022 -0.632178,-0.699911 -1.467555,-1.106311 -0.8128,-0.4064 -1.761067,-0.4064 -0.948267,0 -1.783645,0.4064 -0.835377,0.4064 -1.467555,1.106311 -0.6096,0.699911 -0.993422,1.648177 -0.361245,0.925689 -0.361245,1.964267 z" />
          <path
             id="path823"
             style="font-style:normal;font-variant:normal;font-weight:300;font-stretch:normal;font-size:22.5778px;line-height:1.25;font-family:Raleway;-inkscape-font-specification:'Raleway Light';letter-spacing:0px;word-spacing:0px;fill:#222222;fill-opacity:1;stroke:none;stroke-width:0.264583"
             d="m 39.240435,28.355734 q -1.354667,0 -2.596445,-0.451556 -1.241778,-0.451555 -2.167466,-1.354666 l 0.564444,-0.767645 q 0.948267,0.857956 1.964267,1.264356 1.016,0.4064 2.2352,0.4064 1.535289,0 2.460978,-0.632178 0.948266,-0.654756 0.948266,-1.806222 0,-0.541867 -0.248355,-0.903111 Q 42.175546,23.727289 41.701413,23.478934 41.227279,23.208 40.527368,23.0048 39.827457,22.8016 38.901768,22.575823 37.908346,22.350045 37.163279,22.124267 36.44079,21.898489 35.966657,21.5824 35.492524,21.266312 35.244168,20.814756 35.01839,20.3632 35.01839,19.663289 q 0,-0.880533 0.338667,-1.535289 0.338667,-0.654755 0.925689,-1.083733 0.6096,-0.428978 1.377244,-0.632178 0.790222,-0.225777 1.670756,-0.225777 1.377244,0 2.4384,0.474133 1.061155,0.451555 1.648178,1.174044 l -0.632178,0.6096 q -0.587022,-0.677333 -1.535289,-1.016 -0.925689,-0.338666 -1.986845,-0.338666 -0.654755,0 -1.241777,0.135466 -0.564445,0.135467 -0.993423,0.428978 -0.428977,0.293511 -0.677333,0.767645 -0.248355,0.451555 -0.248355,1.083733 0,0.519289 0.158044,0.835378 0.180622,0.316089 0.541867,0.541866 0.383822,0.225778 0.970844,0.4064 0.587022,0.158045 1.399822,0.361245 1.106311,0.270933 1.964267,0.519289 0.857956,0.248355 1.4224,0.6096 0.587022,0.361244 0.880533,0.857955 0.316089,0.496711 0.316089,1.264356 0,1.580444 -1.241777,2.528711 -1.2192,0.925689 -3.273778,0.925689 z" />
          <path
             id="path825"
             style="font-style:normal;font-variant:normal;font-weight:300;font-stretch:normal;font-size:22.5778px;line-height:1.25;font-family:Raleway;-inkscape-font-specification:'Raleway Light';letter-spacing:0px;word-spacing:0px;fill:#222222;fill-opacity:1;stroke:none;stroke-width:0.264583"
             d="m 63.624412,28.129956 h -1.12889 V 21.5824 q 0,-2.2352 -0.69991,-3.296355 -0.67734,-1.061156 -2.099736,-1.061156 -0.722488,0 -1.377244,0.270934 -0.654756,0.270933 -1.196622,0.767644 -0.541867,0.474133 -0.948267,1.151467 -0.383822,0.654755 -0.6096,1.467555 v 7.247467 H 54.435254 V 21.5824 q 0,-2.257777 -0.677333,-3.296355 -0.677333,-1.061156 -2.099733,-1.061156 -0.722489,0 -1.377245,0.270934 -0.632178,0.248355 -1.174044,0.745066 -0.541867,0.474134 -0.970845,1.151467 -0.4064,0.654756 -0.632178,1.467556 v 7.270044 H 46.374988 V 16.389512 h 1.061155 v 2.799644 q 0.722489,-1.4224 1.896533,-2.212622 1.174045,-0.790222 2.596445,-0.790222 1.490133,0 2.415822,0.880533 0.925689,0.880533 1.106311,2.302933 1.670756,-3.183466 4.605867,-3.183466 1.919111,0 2.731911,1.377244 0.83538,1.354667 0.83538,3.815644 z" />
          <path
             id="path827"
             style="font-style:normal;font-variant:normal;font-weight:300;font-stretch:normal;font-size:22.5778px;line-height:1.25;font-family:Raleway;-inkscape-font-specification:'Raleway Light';letter-spacing:0px;word-spacing:0px;fill:#222222;fill-opacity:1;stroke:none;stroke-width:0.264583"
             d="m 71.955592,28.355734 q -1.24178,0 -2.30294,-0.474134 -1.03857,-0.496711 -1.80622,-1.332088 -0.76764,-0.835378 -1.19662,-1.941689 -0.42898,-1.106311 -0.42898,-2.325511 0,-1.241778 0.42898,-2.348089 0.45155,-1.106311 1.2192,-1.941689 0.76764,-0.835378 1.80622,-1.309511 1.06116,-0.496711 2.28036,-0.496711 1.2192,0 2.25777,0.496711 1.03858,0.474133 1.80623,1.309511 0.79022,0.835378 1.2192,1.941689 0.45155,1.106311 0.45155,2.348089 0,1.2192 -0.45155,2.325511 -0.42898,1.106311 -1.19663,1.941689 -0.76764,0.835377 -1.8288,1.332088 -1.03857,0.474134 -2.25777,0.474134 z m -4.60587,-6.028267 q 0,1.038578 0.36124,1.964267 0.36125,0.903111 0.97085,1.580444 0.63218,0.677334 1.46755,1.083734 0.83538,0.383822 1.78365,0.383822 0.94827,0 1.78364,-0.383822 0.83538,-0.4064 1.46756,-1.106312 0.63218,-0.699911 0.99342,-1.603022 0.36125,-0.925689 0.36125,-1.986844 0,-1.038578 -0.36125,-1.941689 -0.36124,-0.925689 -0.99342,-1.603022 -0.63218,-0.699911 -1.46756,-1.106311 -0.8128,-0.4064 -1.76106,-0.4064 -0.94827,0 -1.78365,0.4064 -0.83538,0.4064 -1.46755,1.106311 -0.6096,0.699911 -0.99343,1.648177 -0.36124,0.925689 -0.36124,1.964267 z" />
          <path
             id="path829"
             style="font-style:normal;font-variant:normal;font-weight:300;font-stretch:normal;font-size:22.5778px;line-height:1.25;font-family:Raleway;-inkscape-font-specification:'Raleway Light';letter-spacing:0px;word-spacing:0px;fill:#222222;fill-opacity:1;stroke:none;stroke-width:0.264583"
             d="m 85.953782,17.405512 q -1.58044,0.04516 -2.77706,0.948266 -1.17405,0.880534 -1.64818,2.4384 v 7.337778 h -1.12889 V 16.389512 h 1.08373 v 2.889955 q 0.6096,-1.241778 1.60303,-2.009422 1.016,-0.790222 2.16746,-0.903111 0.22578,-0.02258 0.4064,-0.02258 0.18063,0 0.29351,0 z" />
          <path
             id="path831"
             style="font-style:normal;font-variant:normal;font-weight:300;font-stretch:normal;font-size:22.5778px;line-height:1.25;font-family:Raleway;-inkscape-font-specification:'Raleway Light';letter-spacing:0px;word-spacing:0px;fill:#222222;fill-opacity:1;stroke:none;stroke-width:0.264583"
             d="m 93.652802,17.405512 q -1.58045,0.04516 -2.77707,0.948266 -1.17404,0.880534 -1.64818,2.4384 v 7.337778 h -1.12889 V 16.389512 h 1.08374 v 2.889955 q 0.6096,-1.241778 1.60302,-2.009422 1.016,-0.790222 2.16747,-0.903111 0.22577,-0.02258 0.4064,-0.02258 0.18062,0 0.29351,0 z" />
          <path
             id="path833"
             style="font-style:normal;font-variant:normal;font-weight:300;font-stretch:normal;font-size:22.5778px;line-height:1.25;font-family:Raleway;-inkscape-font-specification:'Raleway Light';letter-spacing:0px;word-spacing:0px;fill:#222222;fill-opacity:1;stroke:none;stroke-width:0.264583"
             d="m 100.13259,28.355734 q -1.241778,0 -2.302928,-0.474134 -1.03858,-0.496711 -1.80623,-1.332088 -0.76764,-0.835378 -1.19662,-1.941689 -0.42898,-1.106311 -0.42898,-2.325511 0,-1.241778 0.42898,-2.348089 0.45156,-1.106311 1.2192,-1.941689 0.76765,-0.835378 1.80622,-1.309511 1.06116,-0.496711 2.280358,-0.496711 1.2192,0 2.25778,0.496711 1.03857,0.474133 1.80622,1.309511 0.79022,0.835378 1.2192,1.941689 0.45155,1.106311 0.45155,2.348089 0,1.2192 -0.45155,2.325511 -0.42898,1.106311 -1.19662,1.941689 -0.76765,0.835377 -1.8288,1.332088 -1.03858,0.474134 -2.25778,0.474134 z m -4.605868,-6.028267 q 0,1.038578 0.36125,1.964267 0.36124,0.903111 0.97084,1.580444 0.63218,0.677334 1.46756,1.083734 0.83537,0.383822 1.783638,0.383822 0.94827,0 1.78366,-0.383822 0.83537,-0.4064 1.46755,-1.106312 0.63218,-0.699911 0.99341,-1.603022 0.36125,-0.925689 0.36125,-1.986844 0,-1.038578 -0.36125,-1.941689 -0.36124,-0.925689 -0.99341,-1.603022 -0.63219,-0.699911 -1.46755,-1.106311 -0.81281,-0.4064 -1.76108,-0.4064 -0.948268,0 -1.783648,0.4064 -0.83537,0.4064 -1.46755,1.106311 -0.6096,0.699911 -0.99342,1.648177 -0.36125,0.925689 -0.36125,1.964267 z" />
          <circle
             style="fill:#222222;fill-opacity:1;stroke:none;stroke-width:0.286482;stroke-opacity:0.509804"
             id="path844-3"
             cx="142.83353"
             cy="44.171246"
             r="5.5"
             clip-path="url(#clipPath890)"
             transform="translate(-38.896478,-21.378463)" />
        </g>
      </g>
      <g
         id="g21253">
        <path
           d="m 98.248198,14.324556 c -0.749301,0 -1.352904,0.58279 -1.352904,1.311276 0,0.749301 0.582789,1.352904 1.33209,1.352904 0.728486,0 1.332089,-0.603603 1.332089,-1.33209 0,-0.728486 -0.603603,-1.33209 -1.311275,-1.33209 z"
           style="font-family:'URW Bookman';-inkscape-font-specification:'URW Bookman'"
           id="path21234" />
        <path
           d="m 107.195,16.943933 q -1.44498,0 -2.68676,-0.474134 -1.24178,-0.474134 -2.14489,-1.444979 l 0.63218,-1.083735 q 0.99342,0.92569 1.98684,1.354668 1.016,0.406401 2.14489,0.406401 1.37725,0 2.23521,-0.541867 0.85795,-0.564445 0.85795,-1.603024 0,-0.699912 -0.42898,-1.061157 -0.4064,-0.383822 -1.19662,-0.6096 -0.76765,-0.248356 -1.85138,-0.51929 -1.2192,-0.338667 -2.05458,-0.699912 -0.8128,-0.383822 -1.24178,-0.9482673 -0.4064,-0.5870228 -0.4064,-1.5127127 0,-1.1514678 0.56445,-1.8965352 0.58702,-0.7676453 1.58044,-1.1514679 1.016,-0.4064004 2.25778,-0.4064004 1.35467,0 2.39325,0.4289782 1.03858,0.4289782 1.69333,1.1966235 l -0.74506,1.0385788 q -0.63218,-0.7224896 -1.51272,-1.0611566 -0.85795,-0.3612448 -1.91911,-0.3612448 -0.72249,0 -1.37725,0.2032002 -0.65475,0.1806224 -1.08373,0.6321784 -0.4064,0.4289782 -0.4064,1.1966234 0,0.6321784 0.31609,0.9934233 0.31609,0.338667 0.94827,0.5870228 0.63218,0.225778 1.55787,0.4967113 1.33209,0.361245 2.32551,0.745068 0.99342,0.361245 1.53529,0.948267 0.54187,0.587023 0.54187,1.64818 0,1.648179 -1.24178,2.573869 -1.24178,0.92569 -3.27378,0.92569 z"
           style="font-size:22.5778px"
           id="path21236" />
        <path
           d="m 120.24496,16.943933 q -1.46756,0 -2.6416,-0.767645 -1.15147,-0.767646 -1.8288,-1.896536 v 7.247474 h -1.53529 V 4.9551207 h 1.37724 v 2.2803579 q 0.69991,-1.1063122 1.87396,-1.7836463 1.17404,-0.6999118 2.50614,-0.6999118 1.2192,0 2.2352,0.5192894 1.016,0.4967116 1.76107,1.3546681 0.74506,0.8579564 1.15146,1.9642686 0.42898,1.0837345 0.42898,2.2577804 0,1.648179 -0.67733,3.048003 -0.65476,1.377246 -1.85138,2.212624 -1.19663,0.835379 -2.79965,0.835379 z m -0.42898,-1.354668 q 0.97085,0 1.73849,-0.383823 0.76765,-0.4064 1.30952,-1.083734 0.56444,-0.677334 0.85795,-1.512713 0.29351,-0.857956 0.29351,-1.761068 0,-0.9482679 -0.33866,-1.8062243 -0.31609,-0.8579565 -0.92569,-1.5127127 -0.6096,-0.6547562 -1.39983,-1.0385788 -0.79022,-0.3838226 -1.71591,-0.3838226 -0.58702,0 -1.2192,0.225778 -0.63218,0.225778 -1.2192,0.6547562 -0.56445,0.4064004 -0.94827,0.9256898 -0.38382,0.5192894 -0.47413,1.1063123 v 3.6124481 q 0.36124,0.835379 0.97084,1.512713 0.6096,0.654756 1.39983,1.061156 0.8128,0.383823 1.67075,0.383823 z"
           style="font-size:22.5778px"
           id="path21238" />
        <path
           d="m 139.81847,4.9470433 h -1.59243 v 2.0873818 c -1.18357,-1.6354744 -2.60385,-2.367134 -4.64819,-2.367134 -3.52918,0 -6.19759,2.6684056 -6.19759,6.1975869 0,3.529182 2.68993,6.133029 6.3267,6.133029 2.00131,0 3.24943,-0.645582 4.51908,-2.345614 v 2.065862 h 1.59243 z m -6.19758,1.183567 c 2.60384,0 4.60515,2.0228235 4.60515,4.6481907 0,2.689925 -1.97979,4.755787 -4.51908,4.755787 -2.6684,0 -4.71274,-2.087382 -4.71274,-4.777307 0,-2.5608084 2.06586,-4.6266707 4.62667,-4.6266707 z"
           style="font-size:21.5194px;font-family:'URW Gothic';-inkscape-font-specification:'URW Gothic'"
           id="path21240" />
        <path
           d="m 147.97013,16.943933 q -1.28694,0 -2.37067,-0.474134 -1.06116,-0.496712 -1.87396,-1.354668 -0.79022,-0.857956 -1.24178,-1.964269 -0.42898,-1.106312 -0.42898,-2.348091 0,-1.6707571 0.74507,-3.048003 0.74507,-1.3772458 2.07716,-2.1900467 1.33209,-0.8128008 3.07058,-0.8128008 1.64818,0 2.91254,0.7676452 1.26435,0.7450675 1.87395,2.0320021 l -1.49013,0.4741338 q -0.49671,-0.903112 -1.39982,-1.3998236 -0.88054,-0.5192894 -1.96427,-0.5192894 -1.17405,0 -2.14489,0.6096006 -0.97085,0.6096006 -1.55787,1.6707572 -0.56445,1.0611567 -0.56445,2.4158246 0,1.33209 0.58702,2.415825 0.58703,1.083734 1.55787,1.73849 0.97085,0.632179 2.14489,0.632179 0.76765,0 1.46756,-0.270934 0.72249,-0.270933 1.24178,-0.722489 0.54187,-0.474134 0.72249,-1.016001 l 1.51271,0.451556 q -0.31609,0.835378 -1.06115,1.512712 -0.72249,0.654756 -1.71592,1.038579 -0.97084,0.361245 -2.09973,0.361245 z"
           style="font-size:22.5778px"
           id="path21242" />
        <path
           d="m 160.22989,16.943933 q -1.26436,0 -2.34809,-0.474134 -1.08374,-0.496712 -1.87396,-1.33209 -0.79022,-0.857957 -1.24178,-1.964269 -0.42898,-1.106312 -0.42898,-2.370669 0,-1.6481793 0.74507,-3.0254252 0.76764,-1.3772458 2.09973,-2.1900467 1.33209,-0.8353786 3.02543,-0.8353786 1.73849,0 3.02542,0.8353786 1.30952,0.8353787 2.05458,2.2126245 0.74507,1.3546681 0.74507,2.9802694 0,0.180623 0,0.361245 0,0.158045 -0.0226,0.248356 h -10.0697 q 0.11289,1.264357 0.69992,2.25778 0.6096,0.970845 1.55786,1.557868 0.97085,0.564445 2.09974,0.564445 1.15147,0 2.16747,-0.587023 1.03858,-0.587022 1.44498,-1.53529 l 1.33209,0.361245 q -0.36125,0.835378 -1.10631,1.512712 -0.74507,0.677334 -1.76107,1.061157 -0.99343,0.361245 -2.14489,0.361245 z m -4.33494,-6.660451 h 8.69245 q -0.0903,-1.2869349 -0.69991,-2.2577804 -0.58702,-0.9708454 -1.55787,-1.5127126 -0.94827,-0.5644451 -2.09973,-0.5644451 -1.15147,0 -2.09974,0.5644451 -0.94827,0.5418672 -1.55787,1.5352904 -0.58702,0.9708455 -0.67733,2.2352026 z"
           style="font-size:22.5778px"
           id="path21244" />
      </g>
    </g>
  </g>
</svg>
