<?xml version="1.0" encoding="UTF-8" standalone="no"?>
<svg
   id="svg8"
   version="1.1"
   viewBox="0 0 166.16507 21.659944"
   height="21.659943mm"
   width="166.16507mm"
   xmlns="http://www.w3.org/2000/svg"
   xmlns:svg="http://www.w3.org/2000/svg"
   xmlns:rdf="http://www.w3.org/1999/02/22-rdf-syntax-ns#"
   xmlns:cc="http://creativecommons.org/ns#"
   xmlns:dc="http://purl.org/dc/elements/1.1/">
  <defs
     id="defs2">
    <clipPath
       id="clipPath890"
       clipPathUnits="userSpaceOnUse">
      <ellipse
         style="fill:#ffca66;fill-opacity:1;stroke:#000000;stroke-width:0.298758;stroke-opacity:0.509804"
         id="ellipse892"
         cx="139.07217"
         cy="43.649025"
         rx="5.5673323"
         ry="5.9091215" />
    </clipPath>
  </defs>
  <metadata
     id="metadata5">
    <rdf:RDF>
      <cc:Work
         rdf:about="">
        <dc:format>image/svg+xml</dc:format>
        <dc:type
           rdf:resource="http://purl.org/dc/dcmitype/StillImage" />
      </cc:Work>
    </rdf:RDF>
  </metadata>
  <g
     id="g22613">
    <g
       id="g918"
       style="stroke:#111111;stroke-opacity:0.0509804"
       transform="translate(-10.840811,-11.515887)">
      <ellipse
         ry="5.9091215"
         rx="5.5673323"
         cy="22.270561"
         cx="100.1757"
         id="path844"
         style="fill:#ffca66;fill-opacity:1;stroke:#111111;stroke-width:0.298758;stroke-opacity:0.0509804" />
      <path
         d="m 19.462346,28.129956 -4.583289,-6.276622 -2.777067,2.551289 v 3.725333 H 10.973102 V 11.648178 h 1.128888 v 11.514667 l 7.134578,-6.750756 h 1.309511 l -4.899377,4.763911 5.057422,6.953956 z"
         style="font-style:normal;font-variant:normal;font-weight:300;font-stretch:normal;font-size:22.5778px;line-height:1.25;font-family:Raleway;-inkscape-font-specification:'Raleway Light';letter-spacing:0px;word-spacing:0px;fill:#eeeeee;fill-opacity:1;stroke:#111111;stroke-width:0.264583;stroke-opacity:0.0509804"
         id="path819" />
      <path
         d="m 27.071033,28.355734 q -1.241778,0 -2.302933,-0.474134 -1.038578,-0.496711 -1.806223,-1.332088 -0.767644,-0.835378 -1.196622,-1.941689 -0.428978,-1.106311 -0.428978,-2.325511 0,-1.241778 0.428978,-2.348089 0.451556,-1.106311 1.2192,-1.941689 0.767645,-0.835378 1.806222,-1.309511 1.061156,-0.496711 2.280356,-0.496711 1.2192,0 2.257778,0.496711 1.038577,0.474133 1.806222,1.309511 0.790222,0.835378 1.2192,1.941689 0.451556,1.106311 0.451556,2.348089 0,1.2192 -0.451556,2.325511 -0.428978,1.106311 -1.196622,1.941689 -0.767645,0.835377 -1.8288,1.332088 -1.038578,0.474134 -2.257778,0.474134 z m -4.605867,-6.028267 q 0,1.038578 0.361245,1.964267 0.361244,0.903111 0.970844,1.580444 0.632178,0.677334 1.467556,1.083734 0.835377,0.383822 1.783644,0.383822 0.948267,0 1.783645,-0.383822 0.835377,-0.4064 1.467555,-1.106312 0.632178,-0.699911 0.993422,-1.603022 0.361245,-0.925689 0.361245,-1.986844 0,-1.038578 -0.361245,-1.941689 -0.361244,-0.925689 -0.993422,-1.603022 -0.632178,-0.699911 -1.467555,-1.106311 -0.8128,-0.4064 -1.761067,-0.4064 -0.948267,0 -1.783645,0.4064 -0.835377,0.4064 -1.467555,1.106311 -0.6096,0.699911 -0.993422,1.648177 -0.361245,0.925689 -0.361245,1.964267 z"
         style="font-style:normal;font-variant:normal;font-weight:300;font-stretch:normal;font-size:22.5778px;line-height:1.25;font-family:Raleway;-inkscape-font-specification:'Raleway Light';letter-spacing:0px;word-spacing:0px;fill:#eeeeee;fill-opacity:1;stroke:#111111;stroke-width:0.264583;stroke-opacity:0.0509804"
         id="path821" />
      <path
         d="m 39.240435,28.355734 q -1.354667,0 -2.596445,-0.451556 -1.241778,-0.451555 -2.167466,-1.354666 l 0.564444,-0.767645 q 0.948267,0.857956 1.964267,1.264356 1.016,0.4064 2.2352,0.4064 1.535289,0 2.460978,-0.632178 0.948266,-0.654756 0.948266,-1.806222 0,-0.541867 -0.248355,-0.903111 Q 42.175546,23.727289 41.701413,23.478934 41.227279,23.208 40.527368,23.0048 39.827457,22.8016 38.901768,22.575823 37.908346,22.350045 37.163279,22.124267 36.44079,21.898489 35.966657,21.5824 35.492524,21.266312 35.244168,20.814756 35.01839,20.3632 35.01839,19.663289 q 0,-0.880533 0.338667,-1.535289 0.338667,-0.654755 0.925689,-1.083733 0.6096,-0.428978 1.377244,-0.632178 0.790222,-0.225777 1.670756,-0.225777 1.377244,0 2.4384,0.474133 1.061155,0.451555 1.648178,1.174044 l -0.632178,0.6096 q -0.587022,-0.677333 -1.535289,-1.016 -0.925689,-0.338666 -1.986845,-0.338666 -0.654755,0 -1.241777,0.135466 -0.564445,0.135467 -0.993423,0.428978 -0.428977,0.293511 -0.677333,0.767645 -0.248355,0.451555 -0.248355,1.083733 0,0.519289 0.158044,0.835378 0.180622,0.316089 0.541867,0.541866 0.383822,0.225778 0.970844,0.4064 0.587022,0.158045 1.399822,0.361245 1.106311,0.270933 1.964267,0.519289 0.857956,0.248355 1.4224,0.6096 0.587022,0.361244 0.880533,0.857955 0.316089,0.496711 0.316089,1.264356 0,1.580444 -1.241777,2.528711 -1.2192,0.925689 -3.273778,0.925689 z"
         style="font-style:normal;font-variant:normal;font-weight:300;font-stretch:normal;font-size:22.5778px;line-height:1.25;font-family:Raleway;-inkscape-font-specification:'Raleway Light';letter-spacing:0px;word-spacing:0px;fill:#eeeeee;fill-opacity:1;stroke:#111111;stroke-width:0.264583;stroke-opacity:0.0509804"
         id="path823" />
      <path
         d="m 63.624412,28.129956 h -1.12889 V 21.5824 q 0,-2.2352 -0.69991,-3.296355 -0.67734,-1.061156 -2.099736,-1.061156 -0.722488,0 -1.377244,0.270934 -0.654756,0.270933 -1.196622,0.767644 -0.541867,0.474133 -0.948267,1.151467 -0.383822,0.654755 -0.6096,1.467555 v 7.247467 H 54.435254 V 21.5824 q 0,-2.257777 -0.677333,-3.296355 -0.677333,-1.061156 -2.099733,-1.061156 -0.722489,0 -1.377245,0.270934 -0.632178,0.248355 -1.174044,0.745066 -0.541867,0.474134 -0.970845,1.151467 -0.4064,0.654756 -0.632178,1.467556 v 7.270044 H 46.374988 V 16.389512 h 1.061155 v 2.799644 q 0.722489,-1.4224 1.896533,-2.212622 1.174045,-0.790222 2.596445,-0.790222 1.490133,0 2.415822,0.880533 0.925689,0.880533 1.106311,2.302933 1.670756,-3.183466 4.605867,-3.183466 1.919111,0 2.731911,1.377244 0.83538,1.354667 0.83538,3.815644 z"
         style="font-style:normal;font-variant:normal;font-weight:300;font-stretch:normal;font-size:22.5778px;line-height:1.25;font-family:Raleway;-inkscape-font-specification:'Raleway Light';letter-spacing:0px;word-spacing:0px;fill:#eeeeee;fill-opacity:1;stroke:#111111;stroke-width:0.264583;stroke-opacity:0.0509804"
         id="path825" />
      <path
         d="m 71.955592,28.355734 q -1.24178,0 -2.30294,-0.474134 -1.03857,-0.496711 -1.80622,-1.332088 -0.76764,-0.835378 -1.19662,-1.941689 -0.42898,-1.106311 -0.42898,-2.325511 0,-1.241778 0.42898,-2.348089 0.45155,-1.106311 1.2192,-1.941689 0.76764,-0.835378 1.80622,-1.309511 1.06116,-0.496711 2.28036,-0.496711 1.2192,0 2.25777,0.496711 1.03858,0.474133 1.80623,1.309511 0.79022,0.835378 1.2192,1.941689 0.45155,1.106311 0.45155,2.348089 0,1.2192 -0.45155,2.325511 -0.42898,1.106311 -1.19663,1.941689 -0.76764,0.835377 -1.8288,1.332088 -1.03857,0.474134 -2.25777,0.474134 z m -4.60587,-6.028267 q 0,1.038578 0.36124,1.964267 0.36125,0.903111 0.97085,1.580444 0.63218,0.677334 1.46755,1.083734 0.83538,0.383822 1.78365,0.383822 0.94827,0 1.78364,-0.383822 0.83538,-0.4064 1.46756,-1.106312 0.63218,-0.699911 0.99342,-1.603022 0.36125,-0.925689 0.36125,-1.986844 0,-1.038578 -0.36125,-1.941689 -0.36124,-0.925689 -0.99342,-1.603022 -0.63218,-0.699911 -1.46756,-1.106311 -0.8128,-0.4064 -1.76106,-0.4064 -0.94827,0 -1.78365,0.4064 -0.83538,0.4064 -1.46755,1.106311 -0.6096,0.699911 -0.99343,1.648177 -0.36124,0.925689 -0.36124,1.964267 z"
         style="font-style:normal;font-variant:normal;font-weight:300;font-stretch:normal;font-size:22.5778px;line-height:1.25;font-family:Raleway;-inkscape-font-specification:'Raleway Light';letter-spacing:0px;word-spacing:0px;fill:#eeeeee;fill-opacity:1;stroke:#111111;stroke-width:0.264583;stroke-opacity:0.0509804"
         id="path827" />
      <path
         d="m 85.953782,17.405512 q -1.58044,0.04516 -2.77706,0.948266 -1.17405,0.880534 -1.64818,2.4384 v 7.337778 h -1.12889 V 16.389512 h 1.08373 v 2.889955 q 0.6096,-1.241778 1.60303,-2.009422 1.016,-0.790222 2.16746,-0.903111 0.22578,-0.02258 0.4064,-0.02258 0.18063,0 0.29351,0 z"
         style="font-style:normal;font-variant:normal;font-weight:300;font-stretch:normal;font-size:22.5778px;line-height:1.25;font-family:Raleway;-inkscape-font-specification:'Raleway Light';letter-spacing:0px;word-spacing:0px;fill:#eeeeee;fill-opacity:1;stroke:#111111;stroke-width:0.264583;stroke-opacity:0.0509804"
         id="path829" />
      <path
         d="m 93.652802,17.405512 q -1.58045,0.04516 -2.77707,0.948266 -1.17404,0.880534 -1.64818,2.4384 v 7.337778 h -1.12889 V 16.389512 h 1.08374 v 2.889955 q 0.6096,-1.241778 1.60302,-2.009422 1.016,-0.790222 2.16747,-0.903111 0.22577,-0.02258 0.4064,-0.02258 0.18062,0 0.29351,0 z"
         style="font-style:normal;font-variant:normal;font-weight:300;font-stretch:normal;font-size:22.5778px;line-height:1.25;font-family:Raleway;-inkscape-font-specification:'Raleway Light';letter-spacing:0px;word-spacing:0px;fill:#eeeeee;fill-opacity:1;stroke:#111111;stroke-width:0.264583;stroke-opacity:0.0509804"
         id="path831" />
      <path
         d="m 100.13259,28.355734 q -1.241778,0 -2.302928,-0.474134 -1.03858,-0.496711 -1.80623,-1.332088 -0.76764,-0.835378 -1.19662,-1.941689 -0.42898,-1.106311 -0.42898,-2.325511 0,-1.241778 0.42898,-2.348089 0.45156,-1.106311 1.2192,-1.941689 0.76765,-0.835378 1.80622,-1.309511 1.06116,-0.496711 2.280358,-0.496711 1.2192,0 2.25778,0.496711 1.03857,0.474133 1.80622,1.309511 0.79022,0.835378 1.2192,1.941689 0.45155,1.106311 0.45155,2.348089 0,1.2192 -0.45155,2.325511 -0.42898,1.106311 -1.19662,1.941689 -0.76765,0.835377 -1.8288,1.332088 -1.03858,0.474134 -2.25778,0.474134 z m -4.605868,-6.028267 q 0,1.038578 0.36125,1.964267 0.36124,0.903111 0.97084,1.580444 0.63218,0.677334 1.46756,1.083734 0.83537,0.383822 1.783638,0.383822 0.94827,0 1.78366,-0.383822 0.83537,-0.4064 1.46755,-1.106312 0.63218,-0.699911 0.99341,-1.603022 0.36125,-0.925689 0.36125,-1.986844 0,-1.038578 -0.36125,-1.941689 -0.36124,-0.925689 -0.99341,-1.603022 -0.63219,-0.699911 -1.46755,-1.106311 -0.81281,-0.4064 -1.76108,-0.4064 -0.948268,0 -1.783648,0.4064 -0.83537,0.4064 -1.46755,1.106311 -0.6096,0.699911 -0.99342,1.648177 -0.36125,0.925689 -0.36125,1.964267 z"
         style="font-style:normal;font-variant:normal;font-weight:300;font-stretch:normal;font-size:22.5778px;line-height:1.25;font-family:Raleway;-inkscape-font-specification:'Raleway Light';letter-spacing:0px;word-spacing:0px;fill:#eeeeee;fill-opacity:1;stroke:#111111;stroke-width:0.264583;stroke-opacity:0.0509804"
         id="path833" />
      <circle
         transform="translate(-38.896478,-21.378463)"
         clip-path="url(#clipPath890)"
         r="5.5"
         cy="44.171246"
         cx="142.83353"
         id="path844-3"
         style="fill:#eeeeee;fill-opacity:1;stroke:#111111;stroke-width:0.286482;stroke-opacity:0.0509804" />
    </g>
    <g
       aria-label=".space"
       id="text341"
       style="font-size:19.7556px;line-height:1.25;font-family:'Iosevka Term';-inkscape-font-specification:'Iosevka Term';fill:#eeeeee;stroke:#111111;stroke-width:0.264583;stroke-opacity:0.0509804">
      <path
         d="m 98.248594,14.32498 c -0.7493,0 -1.352903,0.582789 -1.352903,1.311276 0,0.7493 0.582789,1.352903 1.332089,1.352903 0.728487,0 1.33209,-0.603603 1.33209,-1.33209 0,-0.728486 -0.603603,-1.332089 -1.311276,-1.332089 z"
         style="font-family:'URW Bookman';-inkscape-font-specification:'URW Bookman'"
         id="path22582" />
      <path
         d="m 107.19539,16.944356 q -1.44498,0 -2.68676,-0.474133 -1.24177,-0.474134 -2.14489,-1.44498 l 0.63218,-1.083734 q 0.99343,0.92569 1.98685,1.354668 1.016,0.4064 2.14489,0.4064 1.37725,0 2.2352,-0.541867 0.85796,-0.564445 0.85796,-1.603024 0,-0.699912 -0.42898,-1.061156 -0.4064,-0.383823 -1.19662,-0.609601 -0.76765,-0.248356 -1.85138,-0.519289 -1.2192,-0.338667 -2.05458,-0.699912 -0.8128,-0.383823 -1.24178,-0.9482679 -0.4064,-0.5870228 -0.4064,-1.5127126 0,-1.1514679 0.56444,-1.8965353 0.58703,-0.7676452 1.58045,-1.1514678 1.016,-0.4064005 2.25778,-0.4064005 1.35467,0 2.39325,0.4289783 1.03857,0.4289782 1.69333,1.1966234 l -0.74507,1.0385788 q -0.63218,-0.7224896 -1.51271,-1.0611566 -0.85796,-0.3612448 -1.91911,-0.3612448 -0.72249,0 -1.37725,0.2032002 -0.65475,0.1806224 -1.08373,0.6321784 -0.4064,0.4289782 -0.4064,1.1966234 0,0.6321785 0.31609,0.9934233 0.31609,0.338667 0.94826,0.5870228 0.63218,0.225778 1.55787,0.4967119 1.33209,0.361245 2.32552,0.745067 0.99342,0.361245 1.53529,0.948268 0.54186,0.587023 0.54186,1.648179 0,1.64818 -1.24178,2.57387 -1.24177,0.925689 -3.27378,0.925689 z"
         style="font-size:22.5778px"
         id="path22584" />
      <path
         d="m 120.24536,16.944356 q -1.46756,0 -2.64161,-0.767645 -1.15146,-0.767645 -1.8288,-1.896535 v 7.247474 h -1.53529 V 4.9555441 h 1.37725 V 7.235902 q 0.69991,-1.1063122 1.87396,-1.7836462 1.17404,-0.6999119 2.50613,-0.6999119 1.2192,0 2.2352,0.5192895 1.01601,0.4967116 1.76107,1.354668 0.74507,0.8579564 1.15147,1.9642687 0.42898,1.0837344 0.42898,2.2577799 0,1.64818 -0.67734,3.048003 -0.65475,1.377246 -1.85138,2.212625 -1.19662,0.835378 -2.79964,0.835378 z m -0.42898,-1.354668 q 0.97084,0 1.73849,-0.383822 0.76765,-0.406401 1.30951,-1.083735 0.56445,-0.677334 0.85796,-1.512712 0.29351,-0.857957 0.29351,-1.761069 0,-0.9482675 -0.33867,-1.8062239 -0.31609,-0.8579564 -0.92569,-1.5127127 -0.6096,-0.6547562 -1.39982,-1.0385788 -0.79022,-0.3838226 -1.71591,-0.3838226 -0.58703,0 -1.2192,0.225778 -0.63218,0.225778 -1.21921,0.6547562 -0.56444,0.4064004 -0.94826,0.9256898 -0.38383,0.5192895 -0.47414,1.1063123 v 3.6124477 q 0.36125,0.835379 0.97085,1.512713 0.6096,0.654756 1.39982,1.061157 0.8128,0.383822 1.67076,0.383822 z"
         style="font-size:22.5778px"
         id="path22586" />
      <path
         d="m 139.81887,4.9474667 h -1.59243 v 2.0873818 c -1.18357,-1.6354744 -2.60385,-2.367134 -4.6482,-2.367134 -3.52918,0 -6.19758,2.6684056 -6.19758,6.1975875 0,3.529181 2.68992,6.133029 6.3267,6.133029 2.00131,0 3.24943,-0.645582 4.51908,-2.345615 v 2.065862 h 1.59243 z m -6.19759,1.183567 c 2.60385,0 4.60516,2.0228236 4.60516,4.6481903 0,2.689925 -1.97979,4.755787 -4.51908,4.755787 -2.6684,0 -4.71275,-2.087381 -4.71275,-4.777306 0,-2.5608089 2.06587,-4.6266713 4.62667,-4.6266713 z"
         style="font-size:21.5194px;font-family:'URW Gothic';-inkscape-font-specification:'URW Gothic'"
         id="path22588" />
      <path
         d="m 147.97052,16.944356 q -1.28693,0 -2.37066,-0.474133 -1.06116,-0.496712 -1.87396,-1.354669 -0.79023,-0.857956 -1.24178,-1.964268 -0.42898,-1.106312 -0.42898,-2.348091 0,-1.6707577 0.74507,-3.0480036 0.74507,-1.3772458 2.07716,-2.1900466 1.33209,-0.8128009 3.07058,-0.8128009 1.64818,0 2.91253,0.7676453 1.26436,0.7450674 1.87396,2.032002 l -1.49013,0.4741338 q -0.49672,-0.903112 -1.39983,-1.3998236 -0.88053,-0.5192894 -1.96427,-0.5192894 -1.17404,0 -2.14489,0.6096006 -0.97084,0.6096006 -1.55787,1.6707573 -0.56444,1.0611566 -0.56444,2.4158251 0,1.33209 0.58702,2.415824 0.58702,1.083735 1.55787,1.738491 0.97085,0.632178 2.14489,0.632178 0.76765,0 1.46756,-0.270933 0.72249,-0.270934 1.24178,-0.72249 0.54186,-0.474134 0.72249,-1.016001 l 1.51271,0.451556 q -0.31609,0.835379 -1.06116,1.512713 -0.72249,0.654756 -1.71591,1.038579 -0.97085,0.361244 -2.09974,0.361244 z"
         style="font-size:22.5778px"
         id="path22590" />
      <path
         d="m 160.23028,16.944356 q -1.26435,0 -2.34809,-0.474133 -1.08373,-0.496712 -1.87396,-1.332091 -0.79022,-0.857956 -1.24177,-1.964268 -0.42898,-1.106313 -0.42898,-2.370669 0,-1.6481799 0.74507,-3.0254258 0.76764,-1.3772458 2.09973,-2.1900466 1.33209,-0.8353787 3.02543,-0.8353787 1.73849,0 3.02542,0.8353787 1.30951,0.8353786 2.05458,2.2126244 0.74507,1.3546681 0.74507,2.98027 0,0.180622 0,0.361245 0,0.158044 -0.0226,0.248355 h -10.0697 q 0.11289,1.264357 0.69991,2.25778 0.6096,0.970846 1.55787,1.557869 0.97085,0.564445 2.09974,0.564445 1.15146,0 2.16747,-0.587023 1.03857,-0.587023 1.44498,-1.535291 l 1.33209,0.361245 q -0.36125,0.835379 -1.10632,1.512713 -0.74506,0.677334 -1.76107,1.061157 -0.99342,0.361244 -2.14489,0.361244 z m -4.33493,-6.660451 h 8.69245 q -0.0903,-1.2869345 -0.69991,-2.25778 -0.58703,-0.9708454 -1.55787,-1.5127126 -0.94827,-0.564445 -2.09974,-0.564445 -1.15146,0 -2.09973,0.564445 -0.94827,0.5418672 -1.55787,1.5352905 -0.58702,0.9708454 -0.67733,2.2352021 z"
         style="font-size:22.5778px"
         id="path22592" />
    </g>
  </g>
</svg>
